<?xml version="1.0" standalone="no"?>
<!DOCTYPE svg PUBLIC "-//W3C//DTD SVG 20010904//EN"
 "http://www.w3.org/TR/2001/REC-SVG-20010904/DTD/svg10.dtd">
<svg version="1.0" xmlns="http://www.w3.org/2000/svg"
 width="757.000000pt" height="330.000000pt" viewBox="0 0 757.000000 330.000000"
 preserveAspectRatio="xMidYMid meet">

<g transform="translate(0.000000,330.000000) scale(0.100000,-0.100000)"
fill="#000000" stroke="none">
<path d="M3563 3114 c-9 -14 -24 -40 -33 -57 -21 -38 -53 -57 -100 -57 -58 0
-204 -35 -290 -69 -130 -52 -197 -90 -317 -179 l-72 -53 -52 15 c-29 9 -63 16
-75 16 l-22 0 18 -70 18 -70 -23 -33 c-105 -145 -161 -240 -204 -349 -19 -48
-27 -58 -47 -58 -14 0 -27 6 -29 12 -3 7 1 52 9 101 9 61 10 87 2 87 -6 0
-165 -43 -353 -97 -384 -109 -353 -91 -334 -190 6 -26 14 -77 20 -113 9 -60
15 -94 42 -262 5 -32 13 -84 19 -115 5 -32 15 -93 21 -135 l13 -78 308 -2 309
-3 32 -80 c38 -93 100 -201 155 -271 61 -78 61 -78 41 -157 -10 -39 -17 -73
-15 -74 3 -4 100 21 129 32 13 5 34 -6 75 -37 164 -128 348 -213 537 -247 33
-5 82 -13 108 -16 44 -6 51 -10 77 -53 58 -94 53 -92 85 -36 42 73 53 83 104
89 236 29 409 98 609 240 l93 66 66 -20 c37 -11 69 -18 72 -16 2 3 -4 37 -13
77 -17 70 -17 72 3 97 83 106 159 239 215 374 12 31 20 38 38 35 26 -3 27 -17
13 -136 -6 -50 -5 -62 6 -62 23 0 682 189 690 197 4 4 3 35 -2 68 -6 33 -14
89 -20 125 -21 141 -29 188 -39 250 -6 36 -15 92 -20 125 -25 163 -30 193 -36
209 -5 14 -37 16 -310 16 l-304 0 -12 28 c-61 144 -124 254 -226 392 -11 15
-10 30 4 89 10 39 15 73 13 76 -3 2 -36 -5 -73 -16 l-69 -21 -26 21 c-75 59
-177 125 -247 160 -118 59 -325 121 -407 121 -55 0 -78 17 -117 85 -17 30 -33
55 -36 55 -2 0 -11 -12 -21 -26z m144 -174 c162 -21 266 -52 395 -115 264
-130 455 -331 578 -608 24 -54 20 -67 -19 -67 -25 0 -32 10 -82 107 -30 59
-60 109 -68 111 -10 4 -8 -5 7 -29 68 -110 90 -181 59 -187 -26 -5 -42 11 -77
81 -38 74 -58 103 -66 94 -4 -4 -2 -12 3 -19 26 -34 73 -133 69 -145 -6 -14
-54 -18 -71 -5 -6 4 -21 29 -34 55 -14 26 -29 51 -34 54 -19 12 -16 -6 9 -50
29 -52 25 -67 -15 -67 -24 0 -35 10 -71 65 -128 197 -343 333 -591 375 -63 11
-67 14 -89 53 l-23 41 -16 -23 c-43 -60 -46 -61 -126 -76 -241 -42 -450 -180
-572 -377 -32 -52 -39 -58 -69 -58 -42 0 -44 16 -9 77 14 23 21 43 16 43 -6 0
-25 -26 -44 -57 -26 -46 -39 -59 -61 -61 -58 -7 -60 2 -17 86 23 43 41 82 41
87 0 19 -26 -18 -65 -93 -34 -64 -45 -78 -68 -80 -41 -5 -35 28 22 131 27 48
46 87 41 87 -14 0 -34 -31 -81 -124 -42 -83 -48 -91 -77 -94 -42 -4 -42 10 7
112 124 265 351 481 627 594 178 74 396 105 571 82z m-1437 -722 c0 -24 -4
-49 -8 -56 -11 -16 -312 -13 -313 3 0 6 13 13 28 17 15 3 80 22 143 41 153 46
150 47 150 -5z m3077 -198 c23 -104 94 -564 89 -577 -5 -11 -318 -13 -1808
-11 l-1803 3 -7 45 c-6 43 -19 122 -38 240 -33 207 -49 317 -50 343 0 16 90
17 1803 15 l1802 -3 12 -55z m-2765 -760 c26 -52 55 -104 63 -114 23 -30 30
-11 8 21 -36 53 -83 151 -83 173 0 17 5 21 26 18 22 -2 34 -17 66 -78 40 -75
68 -114 76 -106 2 3 -11 31 -30 63 -53 91 -61 113 -44 119 38 15 71 -1 96 -46
43 -77 48 -85 55 -78 4 3 -5 26 -19 51 -34 58 -34 77 2 77 35 0 40 -5 83 -70
129 -197 331 -326 581 -370 62 -11 69 -15 94 -53 25 -38 28 -40 38 -23 30 51
52 66 111 76 249 42 454 175 587 377 37 58 44 64 72 61 26 -3 31 -7 28 -27 -1
-13 -11 -36 -22 -51 -11 -15 -20 -34 -20 -40 0 -22 25 7 51 57 13 27 28 51 34
55 17 13 65 9 71 -5 4 -13 -46 -121 -67 -142 -5 -5 -9 -16 -9 -24 0 -24 19 0
69 91 39 69 51 83 71 83 21 0 25 -4 22 -28 -3 -25 -45 -113 -79 -162 -7 -11
-13 -23 -13 -28 0 -15 28 13 43 42 8 14 25 49 40 76 14 28 31 63 37 78 8 24
15 28 42 25 43 -4 41 -23 -12 -130 -153 -305 -436 -539 -755 -623 -84 -23
-238 -44 -314 -45 -98 0 -261 27 -366 62 -307 102 -571 335 -706 624 -49 102
-49 116 -7 112 29 -3 35 -11 80 -98z m2622 94 c21 -8 20 -24 -1 -24 -9 0 -30
-5 -47 -10 -59 -19 -244 -70 -255 -70 -14 0 -14 65 -1 91 10 17 23 19 150 19
76 0 145 -3 154 -6z"/>
<path d="M2638 1963 c6 -2 12 -11 12 -19 0 -9 5 -12 10 -9 13 8 -6 35 -24 34
-7 0 -6 -2 2 -6z"/>
<path d="M4176 1940 c-22 -41 -33 -49 -66 -51 -21 -1 -22 -2 -5 -6 36 -9 37
-19 6 -84 -18 -35 -27 -67 -23 -71 5 -5 15 5 21 24 7 18 18 42 24 53 6 11 16
30 23 43 6 13 19 29 29 35 12 9 16 24 13 52 l-3 40 -19 -35z"/>
<path d="M2725 1924 c-14 -26 -25 -34 -46 -34 -15 0 -31 5 -34 10 -3 6 -11 10
-16 10 -6 0 -4 -7 5 -15 8 -8 23 -15 34 -15 30 0 31 -7 5 -71 -13 -33 -22 -66
-20 -72 3 -7 10 1 16 18 23 57 42 92 60 112 21 23 36 78 24 86 -5 3 -17 -10
-28 -29z"/>
<path d="M3032 1948 c-17 -21 -52 -88 -52 -99 0 -5 -9 -29 -20 -51 -11 -23
-20 -51 -20 -62 1 -24 55 84 65 128 3 16 14 30 25 33 14 4 20 14 20 34 0 32
-3 35 -18 17z"/>
<path d="M3685 1927 c-11 -17 -26 -45 -34 -62 -7 -16 -19 -43 -27 -58 -8 -16
-14 -41 -13 -55 1 -26 1 -26 16 8 8 19 22 43 30 52 8 9 12 21 9 26 -8 14 17
63 31 58 6 -3 14 5 17 17 15 55 1 62 -29 14z"/>
<path d="M3788 1923 c-14 -21 -31 -56 -39 -78 -7 -22 -22 -56 -32 -75 -13 -22
-15 -36 -8 -38 6 -2 11 -12 11 -23 0 -10 4 -19 9 -19 6 0 7 16 4 35 -4 24 0
43 12 62 10 15 24 45 30 66 6 21 15 38 21 38 10 0 33 38 34 57 0 23 -17 12
-42 -25z"/>
<path d="M2522 1901 c-9 -25 -6 -35 24 -77 40 -56 40 -79 2 -107 -33 -25 -75
-17 -81 16 -3 20 -4 21 -12 3 -22 -51 46 -73 101 -31 41 32 43 53 8 125 -14
30 -24 64 -21 77 6 33 -9 29 -21 -6z"/>
<path d="M4677 1820 c-21 -30 -22 -40 -2 -40 11 0 15 -11 15 -36 0 -31 -3 -36
-20 -31 -17 4 -18 2 -9 -14 28 -54 54 7 41 96 l-7 50 -18 -25z"/>
<path d="M3380 1812 c-57 -20 -89 -132 -37 -132 19 0 19 1 4 18 -10 10 -17 25
-17 34 0 17 39 63 61 70 8 3 12 8 9 10 -3 3 -12 3 -20 0z"/>
<path d="M3833 1776 l-46 -46 23 -25 c13 -14 31 -25 39 -25 13 1 13 2 -2 11
-14 8 -17 18 -11 42 10 46 26 69 47 63 19 -5 23 9 7 19 -6 4 -32 -14 -57 -39z"/>
<path d="M4010 1813 c-16 -7 -44 -35 -67 -70 -19 -28 -2 -63 30 -63 20 1 21 2
5 14 -28 20 -21 52 17 91 20 19 34 35 33 34 -2 0 -10 -3 -18 -6z"/>
<path d="M2767 1766 c-18 -32 -22 -47 -14 -55 20 -20 38 -13 32 12 -4 12 -1
36 5 51 17 46 5 41 -23 -8z"/>
<path d="M2862 1790 c-7 -11 -10 -31 -7 -43 4 -16 0 -29 -14 -41 -11 -10 -18
-23 -15 -27 8 -14 24 -11 24 5 0 7 6 19 14 25 8 7 15 20 15 29 0 9 3 29 7 45
7 32 -6 36 -24 7z"/>
<path d="M3123 1787 c12 -12 25 -18 29 -13 7 11 -20 35 -39 36 -7 0 -2 -10 10
-23z"/>
<path d="M3523 1803 c9 -2 17 -13 17 -24 0 -21 16 -26 23 -6 5 14 -22 37 -43
36 -11 -1 -10 -3 3 -6z"/>
<path d="M4218 1769 c-19 -32 -24 -49 -17 -61 11 -20 27 -23 49 -7 13 9 12 10
-3 5 -26 -8 -31 17 -12 54 26 50 12 58 -17 9z"/>
<path d="M4380 1790 c19 -19 40 -27 40 -14 0 11 -29 34 -44 34 -13 0 -12 -4 4
-20z"/>
<path d="M4482 1798 c-7 -7 -12 -22 -12 -34 0 -13 -4 -26 -10 -29 -5 -3 -10
-16 -10 -28 l0 -21 21 21 c12 11 25 39 29 62 8 42 3 50 -18 29z"/>
<path d="M4553 1793 c-7 -2 -13 -11 -13 -20 0 -20 34 -12 38 10 3 17 -3 20
-25 10z"/>
<path d="M3046 1761 c-11 -13 -15 -27 -11 -40 7 -23 46 -37 67 -25 9 6 6 10
-12 14 -20 5 -25 12 -25 38 0 18 0 32 -1 32 0 0 -9 -9 -18 -19z"/>
<path d="M3451 1756 c-25 -29 18 -77 55 -61 17 7 17 8 -6 14 -17 5 -26 16 -30
36 -5 26 -6 27 -19 11z"/>
<path d="M4303 1748 c-16 -36 13 -64 54 -53 l28 8 -30 6 c-23 5 -31 13 -35 36
l-5 29 -12 -26z"/>
<path d="M4550 1720 c0 -17 42 -23 57 -8 12 13 9 15 -21 16 -20 1 -36 -3 -36
-8z"/>
<path d="M2960 1700 c0 -5 7 -7 15 -4 8 4 15 8 15 10 0 2 -7 4 -15 4 -8 0 -15
-4 -15 -10z"/>
<path d="M3620 1700 c0 -5 4 -10 9 -10 6 0 13 5 16 10 3 6 -1 10 -9 10 -9 0
-16 -4 -16 -10z"/>
<path d="M2755 1567 c-4 -10 -5 -21 -1 -24 10 -10 18 4 13 24 -4 17 -4 17 -12
0z"/>
</g>
</svg>
